<svg width="20" height="22" viewBox="0 0 20 22" fill="none" xmlns="http://www.w3.org/2000/svg">
    <path d="M19.2287 0.121459C18.7625 -0.0700096 18.2237 0.0362245 17.8662 0.389515L13.0325 5.16634L7.65625 0.915744C7.16125 0.525396 6.44 0.561219 5.99125 1.00715L0.36625 6.56592C0.13125 6.79691 0 7.11068 0 7.43926V19.7921C0 20.2911 0.30375 20.7432 0.77125 20.9335C0.92625 20.9989 1.08875 21.0273 1.25 21.0273C1.575 21.0273 1.895 20.9013 2.13375 20.6654L6.9675 15.8886L12.3438 20.1392C12.8387 20.5295 13.5575 20.4912 14.0088 20.0478L19.6338 14.489C19.8688 14.258 20 13.9442 20 13.6157V1.26286C20 0.763805 19.6962 0.311692 19.2287 0.121459ZM2.5 16.8101V7.95067L6.25 4.24482V13.1883C6.1625 13.2414 2.5 16.8101 2.5 16.8101ZM7.65625 13.2685L7.5 13.1845V3.95824C7.5 3.95824 12.4487 7.84073 12.5 7.86914V17.1004L7.65625 13.2685ZM17.5 13.1043L13.75 16.8101V7.87161C13.8375 7.81849 17.5 4.24482 17.5 4.24482V13.1043Z" fill="url(#paint0_linear_301_575)"/>
    <defs>
        <linearGradient id="paint0_linear_301_575" x1="3.10417" y1="3.74163" x2="19.4513" y2="4.66195" gradientUnits="userSpaceOnUse">
            <stop stop-color="#FF126B"/>
            <stop offset="1" stop-color="#03ABE2"/>
        </linearGradient>
    </defs>
</svg>
