<svg width="1920" height="571" viewBox="0 0 1920 571" fill="none" xmlns="http://www.w3.org/2000/svg">
    <path fill-rule="evenodd" clip-rule="evenodd" d="M0 570.327V305.409C139 -19.59 457 -114.591 821 164.909C1185 444.409 1643.5 391.511 1920 92.4098V263.827C1515.54 527.682 1124.91 418.688 794.938 326.617C440.84 227.815 156.582 148.499 0 570.327Z" fill="#FFC200"/>
    <path fill-rule="evenodd" clip-rule="evenodd" d="M0 508.432V531.192C156.582 109.365 440.84 188.68 794.938 287.482C1124.91 379.554 1515.54 488.547 1920 224.692V185.35C1454.66 489.191 1054.01 361.469 731.277 258.588C401.383 153.424 152.91 74.2153 0 508.432Z" fill="url(#paint0_linear_0_1)"/>
    <path fill-rule="evenodd" clip-rule="evenodd" d="M1185.02 39.4877C1178.35 39.6022 1171.29 46.8425 1173.39 53.6259C1175.48 60.3674 1184.03 66.1835 1191.11 66.0538C1197.21 65.9426 1200.77 59.4179 1199.98 53.8503C1198.97 46.8493 1192.58 39.358 1185.02 39.4877ZM1039.77 91.3812L1039.77 91.3774L1039.77 91.3709L1039.77 91.3646C1039.24 87.0084 1038.72 82.6819 1038.36 78.4315C1037.87 72.5428 1037.48 66.611 1037.09 60.6683L1037.09 60.6553C1036.29 48.2565 1035.48 35.8093 1033.66 23.606C1032.14 13.4287 1024.63 4.48561 1013.47 5.49883C1001.54 6.58244 994.609 18.3657 997.261 29.5423C999.633 39.5388 1006.11 48.5834 1012.51 57.519L1012.51 57.5201L1012.51 57.5231C1016.61 63.2467 1020.67 68.9256 1023.61 74.781C1027.81 83.162 1031.31 91.8313 1034.1 100.775C1034.55 102.189 1034.96 103.663 1035.38 105.16L1035.39 105.184C1036.87 110.473 1038.44 116.052 1041.56 120.323C1042.12 110.861 1040.93 101.048 1039.77 91.3812ZM1050.32 144.144C1049.7 141.339 1049.09 138.541 1048.87 135.662C1051.8 137.904 1054.24 140.634 1056.7 143.374L1056.7 143.375C1059.58 146.604 1062.49 149.848 1066.22 152.33C1077.25 159.659 1089.22 156.363 1092.6 142.988C1095.43 131.781 1096 120.151 1096.58 108.527C1097.03 99.2923 1097.49 90.0603 1099.08 81.0449C1099.19 80.4337 1099.3 79.7125 1099.42 78.9112C1100.46 72.3264 1102.34 60.3321 1109 59.496C1118.99 58.2408 1119.02 72.6899 1119.03 79.4954L1119.03 79.4958L1119.03 79.9803C1119.05 88.427 1118.17 96.9508 1117.28 105.488L1117.28 105.489C1115.91 118.766 1114.53 132.077 1116.55 145.184C1119.29 162.967 1136.28 158.827 1145.46 148.146C1148.21 144.942 1150.14 141.082 1152.05 137.263L1152.05 137.258C1154.01 133.336 1155.95 129.458 1158.73 126.376C1158.21 129.604 1157.54 132.798 1156.86 135.993L1156.86 135.998C1155.97 140.216 1155.08 144.436 1154.54 148.738C1152.62 163.994 1160.03 179.659 1177.17 172.432C1190.5 166.811 1202.3 157.796 1213.98 148.87C1219.81 144.421 1225.6 139.995 1231.54 136.022C1231.81 135.842 1232.1 135.645 1232.41 135.432C1232.79 135.177 1233.19 134.901 1233.61 134.608L1233.62 134.604C1242.62 128.407 1262.94 114.409 1268.22 128.844C1271.34 137.373 1259.79 146.273 1253.53 151.094L1253.53 151.094L1253.52 151.101L1253.51 151.108L1253.38 151.21L1252.89 151.585L1252.48 151.905C1243.43 158.934 1233.71 165.157 1224.01 171.365L1224 171.366L1223.97 171.39C1219.08 174.517 1214.2 177.641 1209.41 180.863L1208.98 181.15L1208.21 181.664L1207.8 181.939L1207.79 181.947C1201.67 186.021 1193.33 191.566 1190.81 198.289C1187.52 207.068 1199.01 209.509 1204.93 208.084C1210.71 206.691 1215.99 204 1221.28 201.307L1221.28 201.306L1221.29 201.304L1221.29 201.303C1226.04 198.882 1230.79 196.46 1235.92 194.978C1241.77 193.283 1247.69 194.326 1249.45 200.985C1251.05 207.082 1245.91 211.59 1241.37 214.566C1237.72 216.953 1233.55 218.84 1229.35 220.74L1229.34 220.741C1222.19 223.975 1214.96 227.25 1210.05 233.103C1204.01 240.3 1208.2 249.346 1214.87 254.639C1223.84 261.766 1234.8 263.919 1245.73 266.068L1245.74 266.07L1245.74 266.071C1250.54 267.012 1255.32 267.953 1259.94 269.312C1256.6 271.324 1252.21 271.157 1248.14 271.001L1248.14 271.001C1247.01 270.958 1245.9 270.916 1244.85 270.921L1243.53 270.927C1234.97 270.966 1225.29 271.009 1217.4 274.365C1203.24 280.39 1204.54 291.474 1217.31 298.316C1228.49 304.311 1240.64 308.009 1252.79 311.706L1252.79 311.706C1262.27 314.591 1271.75 317.474 1280.75 321.446C1281.49 321.769 1282.4 322.132 1283.43 322.539L1283.43 322.542L1283.43 322.543C1290.18 325.224 1301.71 329.803 1298.12 337.47C1294.89 344.38 1283.9 341.633 1276.61 339.812L1276.61 339.812C1275.18 339.453 1273.88 339.129 1272.82 338.923C1262.68 336.954 1252.91 333.278 1243.14 329.601C1231.31 325.147 1219.47 320.692 1206.96 319.272C1193.3 317.721 1183.18 324.731 1187.14 339.486C1188.76 345.502 1192.12 351.013 1195.9 355.926L987.247 294.475C988.053 293.808 988.83 293.118 989.575 292.403C1000.39 282.024 992.275 272.705 980.415 268.894C968.999 265.226 957.078 263.768 945.161 262.311C934.107 260.958 923.056 259.607 912.418 256.492C911.646 256.266 910.629 256.013 909.453 255.72L909.448 255.719L909.445 255.718C901.777 253.809 887.397 250.228 890.567 241.727C893.3 234.401 907.08 236.195 914.726 237.191L914.726 237.191C915.699 237.318 916.573 237.431 917.312 237.512C925.764 238.431 934.142 239.817 942.52 241.203C952.325 242.826 962.13 244.448 972.054 245.322L972.612 245.372L972.616 245.372C979.576 245.99 989.149 246.84 994.639 241.831C1001.55 235.523 990.721 225.217 986.132 221.139C980.359 216.007 973.842 211.849 967.327 207.693L967.325 207.691L967.321 207.689C960.48 203.324 953.642 198.961 947.672 193.476C942.793 188.991 936.88 182.997 940.477 175.929C943.964 169.08 955.346 175.705 959.788 178.322C964.727 181.233 969.476 184.473 974.224 187.713L974.225 187.713L974.23 187.717C980.401 191.927 986.573 196.138 993.164 199.626L993.969 200.054C998.752 202.601 1003.83 205.306 1009.41 203.262C1016.81 200.548 1016.93 190.158 1016.47 183.725C1015.65 172.365 1011.64 160.975 1007.35 150.502C1006.66 148.814 1005.85 147.092 1005.02 145.344L1005.02 145.338C1003.04 141.153 1001 136.826 1000.41 132.495C1003.87 136.838 1006.81 141.597 1009.75 146.351L1009.75 146.352C1015.62 155.849 1021.48 165.328 1031.38 171.429C1042.31 178.159 1052.21 163.42 1051.85 153.89C1051.72 150.545 1051.02 147.342 1050.32 144.15L1050.32 144.144ZM1170.94 89.7407C1162.92 91.2943 1168.36 102.038 1174.6 100.493C1181.05 98.8957 1176.89 88.59 1170.94 89.7407ZM852.43 61.8431C848.625 46.826 867.939 32.482 881.929 34.07C896.441 35.7175 909.791 54.4657 909.573 68.2623C909.388 79.8758 900.683 91.577 888.299 90.3857C873.106 88.9259 856.297 77.1087 852.43 61.8431ZM1273.58 182.927C1266.39 183.611 1267.72 194.813 1275.08 194.232C1282.33 193.659 1281.03 182.218 1273.58 182.927ZM930.203 115.802C914.66 117.015 923.245 136.916 935.473 135.476C947.029 134.115 940.02 115.036 930.203 115.802ZM1277.52 271.02C1280.23 272.993 1284.97 273.057 1289.13 273.112C1290.74 273.133 1292.27 273.153 1293.55 273.284C1303.86 274.338 1314.3 276.44 1322.7 282.941C1323.04 283.201 1323.39 283.49 1323.76 283.798C1323.9 283.922 1324.05 284.049 1324.21 284.178C1324.33 284.282 1324.45 284.388 1324.58 284.494L1324.58 284.496L1324.58 284.497C1327.81 287.246 1331.97 290.777 1336 289.214C1343.62 286.257 1340.72 272.695 1335.01 269.487C1328.02 265.56 1318.8 266.791 1310.58 267.89L1310.58 267.89C1308.53 268.164 1306.54 268.429 1304.66 268.604L1277.52 271.02Z" fill="#FFC200"/>
    <defs>
        <linearGradient id="paint0_linear_0_1" x1="298" y1="238.749" x2="1726.51" y2="695.101" gradientUnits="userSpaceOnUse">
            <stop stop-color="#FF126B"/>
            <stop offset="1" stop-color="#03ABE2"/>
        </linearGradient>
    </defs>
</svg>
