<svg width="25" height="26" viewBox="0 0 25 26" fill="none" xmlns="http://www.w3.org/2000/svg">
    <path d="M6.27934 20.0389C8.00078 21.7404 10.0743 22.5912 12.5 22.5912C14.9257 22.5912 16.9797 21.7404 18.662 20.0389C20.3834 18.3375 21.2441 16.288 21.2441 13.8905C21.2441 11.4929 20.3834 9.46277 18.662 7.79997C16.9797 6.0985 14.9257 5.24776 12.5 5.24776C10.0743 5.24776 8.00078 6.0985 6.27934 7.79997C4.59703 9.46277 3.75587 11.4929 3.75587 13.8905C3.75587 16.288 4.59703 18.3375 6.27934 20.0389ZM4.51878 6.00182C6.7097 3.83632 9.37011 2.75356 12.5 2.75356C15.6299 2.75356 18.2903 3.83632 20.4812 6.00182C22.6721 8.16733 23.7676 10.7969 23.7676 13.8905C23.7676 16.984 22.6721 19.6136 20.4812 21.7791C18.2903 23.9446 15.6299 25.0273 12.5 25.0273C9.37011 25.0273 6.7097 23.9446 4.51878 21.7791C2.32786 19.6136 1.23239 16.984 1.23239 13.8905C1.23239 10.7969 2.32786 8.16733 4.51878 6.00182ZM13.1455 7.74196V14.2965L18.1338 17.2547L17.1362 18.7628L11.2676 15.1666V7.74196H13.1455ZM7.39437 2.05751L1.58451 6.75588L0 4.89973L5.75117 0.201358L7.39437 2.05751ZM25 4.89973L23.4155 6.75588L17.6056 1.88349L19.2488 0.0273438L25 4.89973Z" fill="url(#paint0_linear_301_576)"/>
    <defs>
        <linearGradient id="paint0_linear_301_576" x1="3.88021" y1="4.44911" x2="24.3075" y2="5.65664" gradientUnits="userSpaceOnUse">
            <stop stop-color="#FF126B"/>
            <stop offset="1" stop-color="#03ABE2"/>
        </linearGradient>
    </defs>
</svg>
