<svg width="457" height="117" viewBox="0 0 457 117" fill="none" xmlns="http://www.w3.org/2000/svg">
    <path fill-rule="evenodd" clip-rule="evenodd" d="M441.364 84.7839L441.332 84.7179C442.736 83.4827 443.45 81.2048 443.673 79.4134C444.473 72.9981 439.145 65.7178 432.161 67.1758C431.178 67.3813 430.155 67.7724 429.315 68.326C428.236 69.0371 427.323 69.8565 426.589 70.9272L426.62 70.9933C426.787 70.8599 426.95 70.7282 427.11 70.5985C428.409 69.5472 429.531 68.6386 431.266 68.1849C436.72 66.7583 442.427 71.4513 442.527 77.0476C442.634 83.0171 437.596 87.8357 431.759 87.859C430.027 87.8659 428.026 87.4421 426.535 86.5373C426.632 86.8045 426.962 87.0071 427.242 87.1785C427.319 87.2258 427.392 87.2707 427.456 87.3139C428.398 87.9562 429.471 88.4968 430.579 88.7772C432.93 89.3722 435.56 88.898 437.666 87.721C438.168 87.4406 438.638 87.0722 439.105 86.7055L439.106 86.7047C439.628 86.2955 440.147 85.8886 440.704 85.6086C441.848 85.0337 443.536 84.8694 444.789 85.0309C446.651 85.271 447.85 86.1832 449.211 87.2186C449.425 87.381 449.643 87.5465 449.867 87.7129C450.479 88.166 451.453 88.7087 452.218 88.2868C452.788 87.9721 452.587 87.2499 452.384 86.7666C451.909 85.6336 450.947 84.7088 449.833 84.1991C447 82.9031 444.097 83.7478 441.364 84.7839ZM431.967 80.0961L431.936 80.0301C431.338 80.4109 430.762 80.7366 430.04 80.8005C427.681 81.01 426.225 78.4643 426.072 76.4199C425.77 72.3802 429.241 69.3953 433.117 69.7133C434.413 69.8196 435.664 70.2488 436.744 70.9767C438.048 71.8559 438.907 73.0867 439.568 74.488C439.608 74.1178 439.471 73.7367 439.342 73.3765C439.309 73.2845 439.277 73.1939 439.248 73.1051C438.587 71.0821 436.894 69.6732 434.867 69.0971C431.086 68.0225 426.835 69.7771 425.656 73.7092C424.979 75.9671 425.391 78.7066 427.259 80.3006C428.071 80.9932 429.123 81.4507 430.203 81.1452C430.876 80.9548 431.403 80.5406 431.938 80.1195L431.939 80.1188L431.967 80.0961ZM431.45 79.8557L431.481 79.9218C429.214 80.7598 426.952 78.8677 426.913 76.5879C426.882 74.6884 428.312 72.9046 429.991 72.1511C435.15 69.8358 440.305 75.8105 438.737 80.7754C437.152 85.794 431.265 88.0654 426.614 85.7732C424.162 84.5646 422.347 82.4057 420.573 80.2956C419.948 79.5531 419.329 78.8167 418.689 78.1298C416.907 76.2171 414.915 75.0474 412.683 73.7793C415.783 74.147 418.994 76.6954 421.144 78.8278C421.415 79.0966 421.679 79.3662 421.939 79.633C423.476 81.2039 424.916 82.6767 427.185 83.2991C429.967 84.0623 433.167 83.1854 434.862 80.7581C436.472 78.4537 435.941 74.5862 432.966 73.6723C431.238 73.1416 429.422 73.9983 428.535 75.5624C427.638 77.1436 428.018 79.2099 429.942 79.7344C430.435 79.869 430.943 79.8915 431.45 79.8557ZM431.082 90.5271L431.114 90.5931C432.186 90.2529 433.316 90.5371 434.336 90.9288C436.956 91.9357 438.822 93.9742 439.173 96.8006C439.767 101.596 436.086 105.626 431.336 105.761C429.773 105.805 428.242 105.384 426.879 104.625C425.382 103.791 424.076 102.438 423.31 100.9C423.332 101.404 423.679 102.023 423.895 102.48C424.676 104.135 425.839 105.339 427.51 106.103C432.847 108.545 439.025 105.192 440.019 99.4695C440.2 98.4236 440.202 97.3056 439.955 96.2698C439.102 92.7035 435.03 88.666 431.082 90.5271ZM400.427 66.6295C400.155 66.3226 399.807 65.9293 399.773 65.5824C400.477 66.5373 401.452 67.3374 402.379 68.0665C406.128 71.0133 412.075 72.9845 416.408 70.0467C417.458 69.3344 418.338 68.3683 418.859 67.2048C419.076 66.7185 419.235 66.2211 419.393 65.7258C419.637 64.9609 419.879 64.201 420.335 63.4938C420.767 62.8225 421.863 61.6636 422.735 62.3315C423.419 62.8557 423.472 64.1337 423.432 64.9078C423.315 67.173 422.504 69.0898 420.612 70.4051C415.653 73.8528 408.173 73.1602 403.488 69.5617C402.419 68.7409 401.455 67.8478 400.587 66.8131C400.54 66.7567 400.485 66.6951 400.427 66.6295ZM429.683 97.6478L429.749 97.6166C429.664 97.5282 429.575 97.4419 429.486 97.3553L429.485 97.3539L429.484 97.3525L429.482 97.3511L429.481 97.3497C429.099 96.9786 428.715 96.6052 428.587 96.066C427.91 93.2249 431.512 92.2645 433.46 93.5228C435.635 94.9277 434.804 98.0923 433.024 99.4252C431.406 100.638 429.236 100.406 427.483 99.5748C425.563 98.6634 424.254 96.6227 423.912 94.559C423.775 93.7355 423.762 92.8925 423.749 92.0484C423.738 91.3625 423.727 90.6761 423.65 89.9991C423.351 87.3665 422.588 85.0924 421.363 82.7619C421.377 83.0847 421.539 83.44 421.695 83.7832C421.72 83.8374 421.745 83.8913 421.768 83.9448C421.803 84.0223 421.836 84.0987 421.865 84.1736C421.889 84.2341 421.911 84.2936 421.929 84.3517C422.216 85.255 422.368 86.2451 422.416 87.1904C422.498 88.8199 422.487 90.4481 422.334 92.0741C422.303 92.4063 422.262 92.7409 422.222 93.0769C422.086 94.1963 421.948 95.3306 422.153 96.4395C423.053 101.314 428.647 105.037 433.352 102.683C436.819 100.947 438.807 95.5025 435.303 92.7331C434.819 92.3506 434.257 92.0722 433.673 91.8786C432.13 91.3667 430.209 91.5873 428.938 92.6509C427.186 94.1164 427.94 96.5862 429.683 97.6478ZM399.12 62.1476L399.087 62.0784C398.924 61.7394 398.679 61.2302 398.799 60.9552C400.455 65.2957 405.383 70.2446 410.273 67.4807C411.05 67.0417 411.75 66.2611 412.149 65.4707C412.272 65.2253 412.375 64.9774 412.477 64.7328C412.72 64.1454 412.956 63.577 413.454 63.108C414.129 62.472 415.335 62.0567 416.132 62.7028C416.794 63.2392 416.826 64.2855 416.653 65.0406C416.25 66.799 414.966 68.1755 413.428 69.0343C408.845 71.594 403.678 69.3739 400.809 65.4163C400.205 64.5831 399.798 63.6677 399.387 62.7421C399.313 62.574 399.238 62.4056 399.162 62.2373C399.149 62.2098 399.135 62.1797 399.12 62.1476ZM389.913 52.3926C389.518 53.2377 389.693 54.4365 389.856 55.3268C390.313 57.8365 391.663 60.2319 393.245 62.205C396.802 66.6409 401.311 70.1679 406.265 72.9337C407.339 73.5332 408.482 74.0276 409.626 74.5224C411.852 75.4854 414.083 76.4501 415.816 78.1946C417.352 79.7416 418.508 81.5542 418.726 83.7648C419.065 87.1971 416.363 89.9657 412.968 89.9354C411.244 89.9199 409.205 89.2217 408.113 87.8076C406.91 86.2514 407.086 83.488 409.123 82.6471C409.108 84.5021 411.918 85.549 412.411 83.4223C412.751 81.9543 410.976 80.6528 409.632 80.991C406.199 81.8546 405.846 86.1845 407.727 88.6357C410.782 92.6163 417.264 92.1427 419.661 87.7035C420.786 85.6206 420.499 83.1854 419.648 81.0683C417.897 76.7084 413.763 75.026 409.722 73.3813L409.721 73.3809C408.361 72.8278 407.013 72.2789 405.769 71.6338C401.405 69.3706 397.28 66.1671 394.205 62.3168C392.992 60.7968 391.798 59.1573 391.049 57.3475C390.471 55.9522 390.262 54.6152 390.04 53.1886L390.02 53.0638L389.972 52.7547L389.939 52.5527L389.913 52.3926ZM419.256 90.8739C419.403 90.7299 419.55 90.586 419.699 90.4459C419.858 90.2976 420.02 90.1537 420.189 90.0184C419.933 90.7453 419.137 91.4898 418.521 92.0655C418.436 92.1449 418.354 92.2212 418.278 92.2937C416.148 94.3197 413.285 95.9763 410.256 95.8145C408.858 95.7398 407.382 95.1915 406.49 94.0646C406.197 93.6938 405.742 93.0949 406.021 92.5978C406.364 91.9866 407.291 92.0218 407.872 92.133C408.594 92.2712 409.248 92.5689 409.904 92.8674C410.666 93.2142 411.43 93.5621 412.307 93.6628C414.482 93.9128 416.579 93.1039 418.273 91.7711C418.465 91.6203 418.647 91.4585 418.824 91.2918C418.969 91.156 419.111 91.0168 419.252 90.8778L419.256 90.8739ZM416.762 94.3822L416.731 94.3161L416.455 94.4953L416.391 94.5372C414.738 95.6138 413.348 96.5185 411.274 96.7748C409.628 96.9783 407.812 96.6628 406.339 95.9126C401.705 93.5537 399.871 88.3431 402.537 83.7402C403.969 81.2678 406.376 80.1184 409.167 80.0078C410.497 79.9553 411.943 80.1575 412.977 81.069C412.807 79.976 410.567 79.4975 409.698 79.4219C406.441 79.1388 403.37 80.5469 401.626 83.3497C401.04 84.2922 400.64 85.3401 400.43 86.429C399.145 93.0708 405.088 99.1778 411.826 97.7711C413.951 97.3275 415.365 95.9269 416.762 94.3822ZM392.227 62.332C392.956 63.0056 393.693 63.686 394.05 64.5706C393.511 64.7036 393.086 64.4004 392.665 64.094C391.83 63.4868 391.087 62.7713 390.375 62.026C387.247 58.7512 385.648 53.2325 387.216 48.9022C387.831 47.2042 390.097 44.0334 392.324 44.8833C393.808 45.4495 393.229 47.3518 392.482 48.2626C392.058 48.78 391.543 49.1699 391.031 49.5579C390.366 50.0616 389.705 50.5621 389.252 51.3343C387.412 54.4698 388.954 58.63 391.099 61.1998C391.43 61.5968 391.827 61.9634 392.227 62.332Z" fill="#FFC200"/>
    <rect y="1" width="398" height="1" fill="#FFC200"/>
    <path d="M385.071 39.5007C379.113 52.4109 383.017 62.8556 398.255 71.863C380.519 65.7445 377.109 48.9177 382.071 38.0007C387.071 27.0007 401.071 19.5007 404.071 17.0007C407.071 14.5007 408 2.50072 384.571 1.00072C425.5 -0.49939 419.071 8.50072 409.571 17.5007C400.071 26.5007 391.072 26.5007 385.071 39.5007Z" fill="#FFC200"/>
</svg>
