<svg width="490" height="351" viewBox="0 0 490 351" fill="none" xmlns="http://www.w3.org/2000/svg">
    <path fill-rule="evenodd" clip-rule="evenodd" d="M334.019 34.4877C327.346 34.6022 320.285 41.8425 322.387 48.6259C324.476 55.3674 333.028 61.1835 340.107 61.0537C346.215 60.9426 349.775 54.4179 348.976 48.8503C347.972 41.8493 341.584 34.358 334.019 34.4877ZM188.767 86.3812L188.767 86.3774L188.767 86.3709L188.766 86.3646C188.24 82.0084 187.718 77.6819 187.361 73.4315C186.866 67.5428 186.48 61.611 186.094 55.6683L186.093 55.6553C185.287 43.2565 184.477 30.8093 182.661 18.606C181.145 8.42865 173.634 -0.514394 162.47 0.498832C150.537 1.58244 143.609 13.3657 146.261 24.5423C148.633 34.5388 155.11 43.5834 161.508 52.519L161.509 52.5201L161.511 52.5231C165.609 58.2467 169.675 63.9256 172.61 69.781C176.812 78.162 180.311 86.8313 183.103 95.7748C183.545 97.1891 183.959 98.6629 184.38 100.16L184.387 100.184C185.874 105.473 187.442 111.052 190.563 115.323C191.117 105.861 189.934 96.048 188.767 86.3812ZM199.318 139.144C198.703 136.339 198.091 133.541 197.871 130.662C200.803 132.905 203.245 135.634 205.696 138.374L205.697 138.375C208.585 141.604 211.487 144.848 215.222 147.33C226.251 154.659 238.218 151.363 241.597 137.988C244.428 126.781 245.003 115.151 245.577 103.527C246.034 94.2923 246.49 85.0603 248.078 76.0449C248.186 75.4337 248.299 74.7125 248.424 73.9112C249.457 67.3264 251.34 55.3321 257.996 54.496C267.991 53.2408 268.015 67.6899 268.027 74.4954L268.027 74.4958L268.028 74.9803C268.051 83.427 267.169 91.9508 266.285 100.488L266.285 100.489C264.91 113.766 263.533 127.077 265.549 140.184C268.287 157.967 285.282 153.827 294.459 143.146C297.212 139.942 299.14 136.082 301.048 132.263L301.05 132.258C303.009 128.336 304.946 124.458 307.733 121.376C307.211 124.604 306.537 127.798 305.862 130.993L305.861 130.998C304.97 135.216 304.08 139.436 303.538 143.738C301.618 158.994 309.03 174.659 326.168 167.432C339.496 161.811 351.299 152.796 362.983 143.87C368.808 139.421 374.603 134.994 380.543 131.022C380.813 130.842 381.104 130.645 381.414 130.432C381.787 130.177 382.188 129.901 382.614 129.608L382.619 129.604C391.617 123.407 411.94 109.409 417.219 123.844C420.338 132.373 408.786 141.273 402.528 146.094L402.528 146.094L402.519 146.101L402.509 146.108L402.377 146.21L401.89 146.585L401.479 146.905C392.434 153.934 382.708 160.157 373.005 166.365L373.005 166.366L372.967 166.39C368.078 169.517 363.196 172.641 358.411 175.863L357.982 176.15L357.213 176.664L356.801 176.939L356.788 176.947C350.667 181.021 342.335 186.566 339.813 193.289C336.521 202.068 348.009 204.509 353.927 203.084C359.712 201.691 364.993 199 370.279 196.307L370.281 196.306L370.287 196.304L370.288 196.303C375.039 193.882 379.793 191.46 384.916 189.978C390.774 188.283 396.691 189.326 398.445 195.985C400.051 202.082 394.914 206.59 390.366 209.566C386.717 211.953 382.547 213.84 378.346 215.74L378.343 215.741C371.194 218.975 363.956 222.25 359.046 228.103C353.008 235.3 357.202 244.346 363.867 249.639C372.839 256.766 383.796 258.919 394.731 261.068L394.744 261.07L394.744 261.071C399.535 262.012 404.322 262.953 408.935 264.312C405.597 266.324 401.213 266.157 397.145 266.001L397.137 266.001C396.008 265.958 394.904 265.916 393.853 265.921L392.534 265.927C383.969 265.966 374.294 266.009 366.405 269.365C352.243 275.39 353.544 286.474 366.307 293.316C377.488 299.311 389.643 303.009 401.792 306.706L401.793 306.706C411.271 309.591 420.746 312.474 429.753 316.446C430.487 316.769 431.401 317.132 432.425 317.539L432.432 317.542L432.434 317.543C439.182 320.224 450.708 324.803 447.124 332.47C443.894 339.38 432.901 336.633 425.613 334.812L425.613 334.812C424.176 334.453 422.884 334.129 421.823 333.923C411.678 331.954 401.91 328.278 392.142 324.601C380.307 320.147 368.471 315.692 355.961 314.272C342.302 312.721 332.18 319.731 336.143 334.486C337.759 340.502 341.117 346.013 344.896 350.926L136.247 289.475C137.053 288.808 137.83 288.118 138.575 287.403C149.386 277.024 141.275 267.705 129.415 263.894C117.999 260.226 106.078 258.768 94.1614 257.311C83.1066 255.958 72.056 254.607 61.4181 251.492C60.6463 251.266 59.629 251.013 58.453 250.72L58.4482 250.719L58.4447 250.718C50.7774 248.808 36.3969 245.228 39.567 236.727C42.2997 229.401 56.0796 231.195 63.726 232.191L63.7264 232.191C64.6995 232.318 65.5733 232.431 66.3122 232.512C74.7639 233.431 83.142 234.817 91.5204 236.203C101.325 237.826 111.13 239.448 121.054 240.322L121.612 240.372L121.616 240.372C128.576 240.99 138.149 241.84 143.639 236.831C150.553 230.523 139.721 220.217 135.132 216.139C129.359 211.007 122.842 206.849 116.327 202.693L116.325 202.691L116.321 202.689C109.48 198.324 102.642 193.961 96.6725 188.476C91.7928 183.991 85.8802 177.997 89.4775 170.929C92.9641 164.08 104.346 170.705 108.788 173.322C113.727 176.233 118.476 179.473 123.224 182.713L123.225 182.713L123.23 182.717C129.401 186.927 135.573 191.138 142.164 194.626L142.969 195.054C147.752 197.601 152.832 200.306 158.409 198.262C165.814 195.548 165.933 185.158 165.47 178.725C164.652 167.365 160.64 155.975 156.354 145.502C155.663 143.814 154.849 142.092 154.022 140.344L154.02 140.338C152.042 136.153 149.997 131.826 149.414 127.495C152.867 131.838 155.808 136.597 158.747 141.351L158.747 141.352C164.617 150.849 170.476 160.328 180.381 166.429C191.307 173.159 201.212 158.42 200.847 148.89C200.719 145.545 200.018 142.342 199.319 139.15L199.318 139.144ZM319.945 84.7407C311.924 86.2943 317.358 97.0379 323.602 95.4926C330.054 93.8957 325.887 83.59 319.945 84.7407ZM1.42969 56.8431C-2.37494 41.826 16.9392 27.482 30.9293 29.07C45.4406 30.7175 58.7909 49.4657 58.5725 63.2623C58.3878 74.8758 49.6827 86.577 37.2988 85.3857C22.1059 83.9259 5.2974 72.1087 1.42969 56.8431ZM422.582 177.927C415.395 178.611 416.718 189.813 424.078 189.232C431.334 188.659 430.03 177.218 422.582 177.927ZM79.2034 110.802C63.6598 112.015 72.245 131.916 84.4732 130.476C96.0287 129.115 89.0195 110.036 79.2034 110.802ZM426.518 266.02C429.225 267.993 433.972 268.057 438.125 268.112C439.74 268.133 441.266 268.153 442.547 268.284C452.861 269.338 463.301 271.44 471.701 277.941C472.037 278.201 472.389 278.49 472.756 278.798C472.904 278.922 473.055 279.049 473.207 279.178C473.33 279.282 473.453 279.388 473.579 279.494L473.582 279.496L473.583 279.497C476.814 282.246 480.967 285.777 484.999 284.214C492.623 281.257 489.721 267.695 484.011 264.487C477.019 260.56 467.801 261.791 459.577 262.89L459.576 262.89C457.527 263.164 455.54 263.429 453.664 263.604L426.518 266.02Z" fill="#FFC200"/>
</svg>
