<svg width="566" height="547" viewBox="0 0 566 547" fill="none" xmlns="http://www.w3.org/2000/svg">
    <path fill-rule="evenodd" clip-rule="evenodd" d="M326.853 18.4994C322.677 12.2033 327.697 2.68413 334.46 0.559727C342.128 -1.8485 350.882 3.88132 354.005 10.73C356.489 16.1764 354.82 23.9117 348.632 25.8626C341.46 28.1246 331.003 24.7567 326.853 18.4994ZM202.067 97.2536L202.068 97.2575C206.156 106.78 210.306 116.447 212.58 126.278C208.119 122.855 204.848 117.628 201.747 112.673C200.864 111.263 199.996 109.875 199.117 108.556C193.589 100.261 187.424 92.4588 180.629 85.1627C175.882 80.065 170.037 75.4878 164.145 70.8747L164.142 70.8721C154.944 63.6699 145.632 56.3799 140.217 46.8829C134.162 36.2652 137.683 22.146 149.514 17.4493C160.583 13.056 170.916 19.9311 175.514 29.8699C181.026 41.7878 185.584 54.2577 190.125 66.6792L190.13 66.6921C192.307 72.6456 194.479 78.5883 196.75 84.454C198.39 88.6898 200.221 92.9538 202.064 97.2471L202.067 97.2536ZM224.627 139.747C225.715 142.624 227.18 145.298 228.648 147.981C230.318 151.031 231.993 154.091 233.127 157.469C236.357 167.093 230.689 185.127 217.541 181.54C205.621 178.288 196.809 170.369 187.98 162.434C183.56 158.462 179.136 154.486 174.316 151.089C176.208 155.337 179.59 159.142 182.86 162.821C184.228 164.359 185.576 165.876 186.787 167.393C194.295 176.8 201.799 187.227 206.041 198.584C208.442 205.016 211.438 215.663 204.709 220.663C199.642 224.428 193.656 223.194 188.019 222.031L187.07 221.836C179.31 220.256 171.76 217.812 164.211 215.368L164.204 215.366C158.395 213.485 152.586 211.604 146.68 210.117C141.371 208.78 127.789 205.437 126.292 213.482C124.748 221.782 132.569 226.126 138.885 229.239C146.612 233.046 154.886 235.446 163.164 237.846L163.169 237.847C171.053 240.133 178.941 242.419 186.362 245.924C192.259 248.709 206.386 255.977 201.236 264.5C197.146 271.268 187.139 273.279 179.864 274.741L179.86 274.743L179.276 274.86C168.905 276.952 158.43 278.245 147.956 279.537C139.006 280.642 130.055 281.746 121.17 283.35C120.393 283.49 119.469 283.637 118.44 283.8C110.352 285.083 95.7766 287.396 95.191 295.701C94.5119 305.337 110.235 304.668 118.618 304.312H118.622C119.91 304.257 121.024 304.209 121.879 304.208C133.65 304.189 145.312 302.246 156.979 300.301C169.555 298.205 182.136 296.109 194.865 296.421C208.089 296.745 219.148 303.824 211.249 317.677C205.832 327.176 196.373 335.138 187.779 341.686C187.037 342.252 186.223 342.818 185.368 343.391L184.987 343.645L184.69 343.841L183.95 344.326L183.644 344.527L183.562 344.58L183.49 344.628L183.487 344.631C179.721 347.092 175.647 349.756 173.607 353.121C179.078 351.544 184.379 348.998 189.677 346.453C193.745 344.499 197.811 342.546 201.951 341.033C207.756 338.909 213.588 337.085 219.666 335.923C233.228 333.331 248.806 337.983 241.723 354.539C237.126 365.284 229.809 374.822 222.546 384.29C218.409 389.685 214.288 395.057 210.698 400.616C207.457 405.635 200.03 417.216 206.989 422.164C214.326 427.38 223.004 418.096 227.397 413.376C233.358 406.972 238.353 399.723 243.348 392.473L243.35 392.469C250.037 382.764 256.724 373.06 265.726 365.385C279.689 353.48 288.803 367.58 289.754 381.476C290.153 387.283 289.614 393.436 288.907 399.198C288.46 402.834 287.845 406.458 287.23 410.084L287.227 410.102L287.224 410.12C286.044 417.076 284.863 424.039 284.858 431.098H285.567C288.172 421.046 291.085 410.931 295.079 401.325C300.26 388.87 312.669 359.308 330.916 367.187C334.137 368.578 335.393 371.621 336.6 374.544C337.751 377.332 338.857 380.01 341.577 381.045C343.741 381.869 346.159 381.361 348.559 380.858C350.279 380.497 351.991 380.138 353.592 380.273C358.746 380.708 363.17 385.593 366.288 389.285C372.398 396.52 376.946 405.025 381.49 413.523C387.064 423.946 392.633 434.359 401.072 442.41C405.542 446.674 408.49 446.186 412.32 445.551C414.001 445.273 415.852 444.967 418.076 445.022C422.117 445.122 426.525 448.563 429.35 451.159C435.206 456.542 439.682 463.12 444.157 469.696L444.16 469.701L444.164 469.707L444.168 469.712L444.172 469.717L444.176 469.722L444.18 469.727C447.963 475.288 451.746 480.849 456.368 485.682C460.278 489.773 466.372 495.42 472.561 491.935C477.08 489.391 475.369 482.704 474.338 478.675L474.318 478.593C471.571 467.853 465.932 457.702 460.511 447.946C459.75 446.575 458.993 445.213 458.249 443.858C451.787 432.085 444.915 420.543 438.045 409.002C428.078 392.261 418.112 375.522 409.397 358.083C408.985 357.258 408.517 356.356 408.019 355.394C403.37 346.418 395.983 332.158 404.641 325.14C414.025 317.533 424.87 320.896 435.459 324.178C440.408 325.713 445.301 327.23 449.963 327.601C448.561 325.454 446.135 324.012 443.782 322.614C443.157 322.242 442.537 321.874 441.942 321.496C441.53 321.234 441.131 320.968 440.751 320.693C435.328 316.77 430.138 312.09 426.627 306.334C418.164 292.456 426.371 282.251 440.751 279.726C453.921 277.413 467.314 278.403 480.706 279.392C491.759 280.209 502.811 281.025 513.737 279.985C514.879 279.877 516.293 279.818 517.864 279.752C525.834 279.42 537.856 278.919 539.074 270.889C540.425 261.98 527.307 260.77 519.629 260.062C518.461 259.954 517.418 259.858 516.571 259.749C506.205 258.401 495.688 258.306 485.168 258.212C471.682 258.091 458.191 257.969 445.003 255.21C429.949 252.06 425.298 241.131 437.917 230.717C444.946 224.916 454.789 221.961 463.502 219.346L464.843 218.943C465.915 218.62 467.055 218.331 468.221 218.034C472.412 216.969 476.928 215.822 479.724 212.762C474.617 212.762 469.459 213.241 464.296 213.72L464.282 213.722C452.499 214.816 440.691 215.913 429.413 211.333C421.036 207.932 414.05 199.953 418.041 190.786C421.287 183.33 427.679 177.808 433.992 172.354C437.701 169.149 441.383 165.968 444.385 162.431C448.124 158.024 452.004 151.874 448.54 146.13C444.755 139.856 438.414 140.571 432.956 144.064C428.181 147.119 424.065 151.024 419.951 154.926L419.946 154.93C415.37 159.271 410.796 163.609 405.321 166.772C399.72 170.008 387.285 170.971 388.005 161.013C388.557 153.388 395.38 145.218 400.394 139.215L400.404 139.204L400.742 138.799L401.371 138.043L401.721 137.62C405.64 132.878 409.687 128.207 413.738 123.53C421.759 114.27 429.8 104.988 436.905 95.0873L437.228 94.6373L437.612 94.1073L437.716 93.9636L437.724 93.9532L437.73 93.9441C442.658 87.1379 451.756 74.5723 446.02 66.7986C436.312 53.6433 419.809 74.054 412.503 83.0902L412.499 83.0954C412.153 83.5238 411.827 83.9262 411.524 84.2987C411.272 84.6089 411.035 84.8979 410.814 85.1632C405.955 91.0072 401.38 97.2718 396.781 103.568C387.556 116.199 378.238 128.958 366.348 138.708C351.058 151.246 338.808 137.475 336.187 121.316C335.449 116.759 335.09 112.181 334.731 107.605V107.598C334.46 104.133 334.188 100.668 333.752 97.2138C331.837 101.2 331.027 105.744 330.209 110.339L330.208 110.344C329.411 114.818 328.605 119.341 326.761 123.443C320.617 137.112 304.548 146.453 296.424 129.114C290.437 116.332 287.847 102.322 285.264 88.3472C283.603 79.3615 281.944 70.3901 279.387 61.7697L279.24 61.2751C277.186 54.3278 272.826 39.5764 263.022 43.865C256.492 46.7215 258.173 59.5384 259.096 66.5749C259.209 67.4311 259.31 68.2017 259.384 68.8585C260.471 78.5442 262.776 88.1109 265.082 97.6802C267.984 109.726 270.888 121.777 271.366 134.076C271.936 148.753 260.735 155.719 247.302 151.552C242.752 150.14 238.823 147.699 234.912 145.27C231.593 143.209 228.287 141.155 224.627 139.747ZM335.2 56.1212C327.496 60.1208 336.254 69.4595 342.151 66.0029C348.245 62.4308 340.908 53.1583 335.2 56.1212ZM24.0918 86.2016C9.36435 88.788 -6.00662 109.249 2.37432 123.443C10.8941 137.871 31.5614 144.885 47.4756 141.805C60.448 139.297 65.8049 124.727 62.5088 112.809C58.5921 98.652 39.368 83.519 24.0918 86.2016ZM467.709 120.424C460.593 123.286 465.301 134.329 472.625 131.522C479.844 128.754 475.083 117.461 467.709 120.424ZM97.7872 155.16C82.3177 161.075 97.0334 178.818 109.058 173.669C120.42 168.802 107.556 151.424 97.7872 155.16ZM510.599 207.862C506.351 209.055 501.498 210.419 498.148 209.217L525.075 198.584C526.933 197.841 528.878 196.972 530.883 196.076C538.932 192.48 547.953 188.449 556.254 190.357C563.032 191.915 570.057 204.895 563.178 210.208C559.539 213.018 554.249 210.659 550.132 208.824L550.128 208.823C549.77 208.663 549.42 208.507 549.082 208.359C548.616 208.155 548.171 207.966 547.75 207.802C537.243 203.688 525.977 204.682 515.155 206.708C513.81 206.96 512.25 207.398 510.599 207.862ZM478.071 352.838L478.074 352.84L478.114 352.876L478.201 352.953C480.432 354.952 482.642 356.931 484.747 358.922C488.879 362.828 492.867 366.883 496.855 370.938L496.865 370.948C502.237 376.41 507.608 381.87 513.329 386.966C515.68 389.06 517.914 391.463 520.168 393.887L520.171 393.891C524.298 398.33 528.49 402.839 533.579 405.645C549.341 414.337 567.654 395.306 562.472 379.35C560.12 372.106 552.117 368.197 544.916 368.018C525.564 367.536 508.647 362.378 491.771 352.821C488.152 350.771 484.493 348.254 480.779 345.7C474.015 341.047 467.074 336.273 459.883 333.981C464.789 340.949 471.522 346.976 478.066 352.833L478.069 352.835L478.071 352.838ZM120.422 381.292C130.391 376.122 140.569 370.843 150.932 368.007C145.948 374.171 139.28 379.121 132.586 384.089C126.812 388.375 121.019 392.676 116.274 397.78C111.68 402.722 108.944 408.322 106.204 413.929C104.174 418.082 102.142 422.24 99.3533 426.135C95.4543 431.58 89.4621 433.84 82.9059 432.12C70.7803 428.938 65.9701 411.112 75.8479 403.117C81.7005 398.382 89.7644 395.143 97.3872 392.081L97.3911 392.08C100.489 390.835 103.515 389.62 106.29 388.346C110.951 386.205 115.662 383.761 120.422 381.292ZM323.834 403.241C316.74 405.66 311.19 415.968 315.79 422.589C320.623 429.545 331.988 433.202 340.128 430.635C346.762 428.544 347.999 419.789 345.537 414.085C342.252 406.468 332.13 400.412 323.834 403.241ZM250.671 501.531C258.59 485.14 266.552 468.66 275.646 453.073C277.35 457.251 275.626 464.544 274.261 470.324C273.845 472.082 273.463 473.701 273.22 475.048C272.217 480.615 271.509 486.534 270.789 492.555C269.142 506.335 267.431 520.646 261.964 532.468C258.529 539.894 249.741 550.213 240.281 546.038C231.12 541.994 237.83 527.674 240.749 521.835C244.101 515.129 247.382 508.337 250.671 501.531Z" fill="#FFC200"/>
</svg>
