<svg width="144" height="74" viewBox="0 0 144 74" fill="none" xmlns="http://www.w3.org/2000/svg">
    <path fill-rule="evenodd" clip-rule="evenodd" d="M124.402 30.3238L124.335 30.2961C124.537 28.4377 123.527 26.2744 122.483 24.8016C118.744 19.5273 109.899 17.7504 105.729 23.539C105.142 24.3542 104.651 25.3332 104.404 26.3086C104.088 27.5612 103.967 28.7823 104.148 30.0678L104.215 30.0956C104.249 29.8845 104.28 29.6774 104.311 29.4737C104.56 27.8213 104.775 26.3933 105.749 24.888C108.811 20.1547 116.19 19.7665 120.041 23.8291C124.148 28.1626 123.681 35.1185 119.389 39.0742C118.116 40.248 116.353 41.2858 114.642 41.624C114.894 41.7561 115.275 41.6825 115.596 41.6203C115.685 41.6032 115.77 41.5869 115.846 41.576C116.974 41.4143 118.131 41.089 119.138 40.5484C121.274 39.4012 122.895 37.2763 123.656 34.9863C123.837 34.4409 123.935 33.852 124.032 33.266L124.033 33.2645C124.141 32.6105 124.25 31.9601 124.472 31.3776C124.928 30.1814 126.063 28.9208 127.097 28.1946C128.633 27.1154 130.134 26.9793 131.837 26.8248C132.104 26.8005 132.376 26.7758 132.654 26.747C133.412 26.6684 134.496 26.4121 134.776 25.5845C134.985 24.967 134.349 24.5698 133.874 24.35C132.758 23.8348 131.424 23.8012 130.258 24.1769C127.293 25.1322 125.72 27.7147 124.402 30.3238ZM114.305 33.2048L114.237 33.1771C114.052 33.8619 113.847 34.4909 113.358 35.0251C111.758 36.7719 108.965 35.8757 107.473 34.4699C104.524 31.6923 105.071 27.1474 108.147 24.7665C109.175 23.9705 110.388 23.4429 111.676 23.2515C113.231 23.0205 114.696 23.3492 116.13 23.9369C115.909 23.6368 115.551 23.4478 115.213 23.2691C115.126 23.2235 115.041 23.1785 114.96 23.1326C113.107 22.0853 110.907 22.1885 109.022 23.131C105.507 24.8894 103.554 29.0526 105.337 32.75C106.361 34.8732 108.514 36.6172 110.968 36.5329C112.034 36.4963 113.119 36.124 113.71 35.1696C114.079 34.575 114.188 33.914 114.299 33.2421L114.299 33.241L114.305 33.2048ZM113.761 33.3763L113.828 33.404C112.72 35.5527 109.774 35.6828 108.207 34.0261C106.902 32.6459 106.754 30.3641 107.485 28.675C109.73 23.4851 117.566 24.4156 119.759 29.1379C121.976 33.9113 119.164 39.56 114.185 41.0068C111.56 41.7697 108.763 41.4013 106.03 41.0413C105.068 40.9146 104.114 40.789 103.178 40.714C100.572 40.5052 98.3128 40.9862 95.8098 41.5565C98.3459 39.7359 102.435 39.4497 105.461 39.5726C105.842 39.5881 106.219 39.6091 106.592 39.6299C108.785 39.7527 110.842 39.8677 112.937 38.7958C115.505 37.4817 117.275 34.6752 116.888 31.7397C116.521 28.953 113.519 26.4572 110.707 27.7902C109.073 28.5646 108.312 30.4221 108.712 32.175C109.117 33.9471 110.792 35.2156 112.565 34.3049C113.021 34.0712 113.411 33.7448 113.761 33.3763ZM120.69 41.5L120.758 41.5277C121.32 40.5528 122.346 39.9999 123.362 39.6012C125.976 38.5761 128.728 38.8211 130.894 40.6705C134.57 43.8085 134.572 49.2667 131.157 52.5719C130.034 53.6587 128.62 54.3807 127.101 54.7404C125.434 55.1353 123.558 55.0185 121.954 54.3997C122.311 54.7571 122.985 54.9799 123.452 55.1715C125.146 55.8654 126.816 55.9693 128.564 55.406C134.151 53.6061 136.448 46.9624 133.32 42.069C132.748 41.1746 131.995 40.3484 131.113 39.7511C128.077 37.6946 122.348 37.4623 120.69 41.5ZM81.9408 44.55C81.5331 44.5068 81.0107 44.4516 80.7515 44.2186C81.9155 44.4482 83.1744 44.3812 84.3508 44.2935C89.1058 43.9386 94.8255 41.3797 96.0403 36.2881C96.3349 35.0535 96.3325 33.7467 95.9314 32.5368C95.7638 32.0311 95.5452 31.5571 95.3274 31.085C94.9912 30.356 94.6572 29.6317 94.5162 28.8022C94.3824 28.0151 94.409 26.4204 95.5033 26.3248C96.3623 26.2497 97.2638 27.157 97.7567 27.7554C99.1988 29.5061 99.8938 31.4679 99.385 33.7155C98.0515 39.6064 92.0643 44.1425 86.178 44.6487C84.8354 44.7642 83.5212 44.7557 82.1826 44.5776C82.1097 44.5679 82.0279 44.5592 81.9408 44.55ZM124.463 47.6991L124.491 47.6316C124.368 47.6238 124.244 47.62 124.12 47.6162L124.118 47.6161L124.116 47.6161L124.114 47.616L124.112 47.6159C123.58 47.5994 123.045 47.5829 122.586 47.2717C120.17 45.6315 122.18 42.492 124.467 42.1064C127.02 41.6756 128.542 44.5719 128.128 46.7562C127.752 48.7438 125.994 50.037 124.14 50.6058C122.108 51.2291 119.765 50.6061 118.119 49.3142C117.463 48.7987 116.884 48.1854 116.305 47.5715C115.834 47.0725 115.363 46.5732 114.849 46.1256C112.852 44.3849 110.754 43.2211 108.277 42.3281C108.506 42.5567 108.865 42.7097 109.212 42.8575C109.267 42.8808 109.321 42.9041 109.375 42.9274C109.453 42.9613 109.529 42.9955 109.601 43.0309C109.659 43.0594 109.715 43.0886 109.768 43.1191C110.589 43.5922 111.37 44.2202 112.043 44.8856C113.203 46.0327 114.294 47.2421 115.278 48.545C115.479 48.8112 115.675 49.0856 115.872 49.3611C116.527 50.2789 117.191 51.209 118.09 51.8891C122.044 54.8787 128.685 53.852 130.568 48.9391C131.956 45.3189 129.749 39.9592 125.294 40.2799C124.678 40.3242 124.076 40.498 123.514 40.7491C122.03 41.4128 120.761 42.8716 120.541 44.5145C120.237 46.7783 122.46 48.0924 124.463 47.6991ZM77.9516 42.1246L77.8804 42.0959C77.5312 41.9557 77.007 41.7452 76.9099 41.4613C81.0613 43.5468 88.0378 43.8735 89.7814 38.534C90.0584 37.6859 90.0484 36.6374 89.8091 35.7851C89.7348 35.5206 89.6434 35.2683 89.5532 35.0193C89.3366 34.4214 89.127 33.8429 89.1781 33.1606C89.2474 32.2354 89.8568 31.1155 90.8813 31.0542C91.7318 31.0034 92.4613 31.7542 92.8431 32.4281C93.7325 33.9976 93.7135 35.8801 93.158 37.5518C91.5028 42.5338 86.1917 44.3818 81.4037 43.3972C80.3957 43.1899 79.478 42.7886 78.5501 42.3828C78.3817 42.3091 78.2128 42.2353 78.0431 42.1625C78.0153 42.1506 77.9845 42.1379 77.9516 42.1246ZM64.5743 41.1382C64.8529 42.0286 65.7911 42.7951 66.5118 43.3424C68.5431 44.8859 71.1555 45.7429 73.6547 46.1314C79.2731 47.0047 84.9809 46.5648 90.5032 45.2631C91.7001 44.981 92.8772 44.5745 94.0555 44.1677C96.3483 43.376 98.6455 42.5828 101.101 42.7009C103.279 42.8057 105.356 43.3633 107.008 44.8476C109.574 47.1521 109.449 51.0184 106.923 53.2873C105.64 54.4388 103.664 55.2995 101.904 54.9933C99.9661 54.6562 98.2311 52.4981 99.1667 50.5032C100.408 51.8818 103.188 50.7582 102.117 48.8563C101.377 47.5436 99.1884 47.7811 98.4249 48.9374C96.4744 51.8911 99.1354 55.3251 102.178 55.8645C107.119 56.7404 111.582 52.0174 110.356 47.1233C109.781 44.8271 107.926 43.2236 105.869 42.2351C101.635 40.1995 97.4484 41.7475 93.3562 43.2609L93.3552 43.2612C91.9788 43.7702 90.6131 44.2753 89.2597 44.6387C84.5118 45.9134 79.3059 46.3327 74.4389 45.5658C72.5174 45.2631 70.5298 44.8589 68.7558 44.0287C67.388 43.3887 66.3317 42.5428 65.2048 41.6403L65.1062 41.5614L64.8617 41.366L64.7016 41.2387L64.5743 41.1382ZM112.197 49.7365C112.208 49.5311 112.219 49.3259 112.235 49.1215C112.252 48.905 112.274 48.6894 112.308 48.4753C112.61 49.1845 112.524 50.2716 112.458 51.1121C112.449 51.2281 112.44 51.3394 112.433 51.4444C112.228 54.3766 111.233 57.5312 108.889 59.4558C107.806 60.3443 106.347 60.9354 104.929 60.7055C104.462 60.6298 103.722 60.495 103.592 59.9398C103.433 59.2573 104.141 58.6576 104.645 58.3477C105.271 57.9626 105.954 57.7409 106.64 57.5185C107.436 57.2603 108.235 57.0011 108.95 56.4841C110.724 55.2009 111.726 53.1887 112.077 51.0618C112.116 50.8212 112.141 50.579 112.16 50.3363C112.175 50.1384 112.186 49.94 112.196 49.7419L112.197 49.7365ZM112.724 54.0084L112.656 53.9806L112.573 54.299L112.554 54.3732C112.061 56.2834 111.646 57.8886 110.288 59.4773C109.211 60.7383 107.658 61.7308 106.064 62.1715C101.052 63.5576 96.1824 60.9502 95.0442 55.754C94.4326 52.963 95.4333 50.4904 97.4188 48.5251C98.3647 47.589 99.5685 46.7624 100.947 46.7373C100.083 46.0456 98.1074 47.2041 97.4149 47.7349C94.8201 49.7238 93.5044 52.8348 94.1085 56.0804C94.3116 57.1717 94.724 58.2146 95.3033 59.1603C98.8371 64.929 107.344 65.4253 111.367 59.8406C112.636 58.0793 112.735 56.0914 112.724 54.0084ZM72.9887 46.9123C73.9818 46.917 74.9849 46.9218 75.8448 47.3341C75.5368 47.796 75.0188 47.8589 74.5012 47.9169C73.4757 48.0318 72.4441 48.0057 71.4158 47.9359C66.8979 47.6296 61.993 44.6365 60.2285 40.3824C59.5365 38.7142 59.069 34.8452 61.2862 33.9694C62.7635 33.3859 63.6199 35.1806 63.6834 36.3566C63.7196 37.0246 63.6027 37.6597 63.4865 38.2918C63.3356 39.1123 63.1856 39.9277 63.3723 40.8033C64.1301 44.359 68.0752 46.3889 71.3923 46.8379C71.9047 46.9073 72.4452 46.9098 72.9887 46.9123Z" fill="#FF126B"/>
    <rect y="38" width="60" height="1" fill="#FF126B"/>
</svg>
