<svg width="234" height="135" viewBox="0 0 234 135" fill="none" xmlns="http://www.w3.org/2000/svg">
    <ellipse cx="49" cy="9.5" rx="8" ry="8.5" fill="white"/>
    <path fill-rule="evenodd" clip-rule="evenodd" d="M0.509898 65.632C5.93226 128.112 69.074 125.396 89.2178 116.082C97.5909 112.21 108.802 111.718 119.756 112.956C117.985 115.027 116.986 117.376 116.986 119.865C116.986 128.224 128.259 135 142.165 135C151.539 135 159.717 131.921 164.051 127.353C181.903 132.337 215.671 130.561 227.386 111.327C241.331 88.4308 230.872 71.3555 217.701 60.8774C228.935 50.7875 240.944 20.5176 214.603 5.38265C199.688 -3.18673 185.022 0.187199 169.269 3.81132C157.199 6.58801 144.491 9.51156 130.543 7.32303C98.3918 2.27802 55.5169 20.6152 50.4811 23.7198C48.6374 23.3799 46.4922 22.8494 44.1464 22.2692C25.9561 17.7702 -4.29309 10.2887 0.509898 65.632Z" fill="white"/>
    <circle cx="230.5" cy="61.5" r="3.5" fill="white"/>
    <circle cx="108.5" cy="118.5" r="3.5" fill="white"/>
</svg>
