<svg width="28" height="42" viewBox="0 0 28 42" fill="none" xmlns="http://www.w3.org/2000/svg">
    <path d="M21 14C21 17.8555 17.8555 21 14 21C10.1445 21 7 17.8555 7 14C7 10.1445 10.1445 7 14 7C17.8555 7 21 10.1445 21 14ZM28 14C28 6.26172 21.7383 0 14 0C6.26172 0 0 6.26172 0 14C0 15.668 0.191406 17.3906 0.902344 18.8945L10.8828 40.0586C11.4297 41.2617 12.6875 42 14 42C15.3125 42 16.5703 41.2617 17.1445 40.0586L27.0977 18.8945C27.8086 17.3906 28 15.668 28 14Z" fill="url(#paint0_linear_301_581)"/>
    <defs>
        <linearGradient id="paint0_linear_301_581" x1="4.34583" y1="7.42857" x2="27.2688" y2="8.33194" gradientUnits="userSpaceOnUse">
            <stop stop-color="#FF126B"/>
            <stop offset="1" stop-color="#03ABE2"/>
        </linearGradient>
    </defs>
</svg>
