<svg width="12" height="12" viewBox="0 0 12 12" fill="none" xmlns="http://www.w3.org/2000/svg">
    <path d="M12 9.47727C12 9.41761 12 9.35795 11.9744 9.2983C11.9148 9.11932 11.4972 8.93182 11.3267 8.84659C10.8409 8.57386 10.3466 8.30966 9.86932 8.02841C9.64773 7.89205 9.375 7.63636 9.1108 7.63636C8.59091 7.63636 7.83239 9.17898 7.37216 9.17898C7.14205 9.17898 6.84375 8.96591 6.6392 8.84659C5.08807 7.9858 4.0142 6.91193 3.15341 5.3608C3.03409 5.15625 2.82102 4.85795 2.82102 4.62784C2.82102 4.16761 4.36364 3.40909 4.36364 2.8892C4.36364 2.625 4.10795 2.35227 3.97159 2.13068C3.69034 1.65341 3.42614 1.15909 3.15341 0.673296C3.06818 0.502841 2.88068 0.0852274 2.7017 0.0255683C2.64205 0 2.58239 0 2.52273 0C2.21591 0 1.61932 0.136364 1.33807 0.264205C0.920455 0.443182 0.647727 0.920455 0.434659 1.30398C0.161932 1.80682 0 2.31818 0 2.8892C0 3.68182 0.323864 4.39773 0.588068 5.12216C0.775568 5.64205 1.00568 6.14489 1.29545 6.61364C2.19034 8.0625 3.9375 9.80966 5.38636 10.7045C5.85511 10.9943 6.35795 11.2244 6.87784 11.4119C7.60227 11.6761 8.31818 12 9.1108 12C9.68182 12 10.1932 11.8381 10.696 11.5653C11.0795 11.3523 11.5568 11.0795 11.7358 10.6619C11.8636 10.3807 12 9.78409 12 9.47727Z" fill="#CDCDCD"/>
</svg>
