<svg width="16" height="17" viewBox="0 0 16 17" fill="none" xmlns="http://www.w3.org/2000/svg">
    <path d="M16 12.6637C16 12.5842 16 12.5046 15.9659 12.4251C15.8864 12.1864 15.3295 11.9364 15.1023 11.8228C14.4545 11.4592 13.7955 11.1069 13.1591 10.7319C12.8636 10.5501 12.5 10.2092 12.1477 10.2092C11.4545 10.2092 10.4432 12.266 9.82955 12.266C9.52273 12.266 9.125 11.9819 8.85227 11.8228C6.78409 10.6751 5.35227 9.24325 4.20455 7.17507C4.04545 6.90234 3.76136 6.50462 3.76136 6.1978C3.76136 5.58416 5.81818 4.5728 5.81818 3.87962C5.81818 3.52734 5.47727 3.16371 5.29545 2.86825C4.92045 2.23189 4.56818 1.5728 4.20455 0.925071C4.09091 0.697798 3.84091 0.14098 3.60227 0.0614348C3.52273 0.0273438 3.44318 0.0273438 3.36364 0.0273438C2.95455 0.0273438 2.15909 0.209162 1.78409 0.379617C1.22727 0.618253 0.863636 1.25462 0.579545 1.76598C0.215909 2.43643 0 3.11825 0 3.87962C0 4.93644 0.431818 5.89098 0.784091 6.85689C1.03409 7.55007 1.34091 8.22052 1.72727 8.84552C2.92045 10.7773 5.25 13.1069 7.18182 14.3001C7.80682 14.6864 8.47727 14.9933 9.17045 15.2433C10.1364 15.5955 11.0909 16.0273 12.1477 16.0273C12.9091 16.0273 13.5909 15.8114 14.2614 15.4478C14.7727 15.1637 15.4091 14.8001 15.6477 14.2433C15.8182 13.8683 16 13.0728 16 12.6637Z" fill="url(#paint0_linear_301_567)"/>
    <defs>
        <linearGradient id="paint0_linear_301_567" x1="2.48333" y1="2.85727" x2="15.5568" y2="3.6301" gradientUnits="userSpaceOnUse">
            <stop stop-color="#FF126B"/>
            <stop offset="1" stop-color="#03ABE2"/>
        </linearGradient>
    </defs>
</svg>
