<svg width="1920" height="1822" viewBox="0 0 1920 1822" fill="none" xmlns="http://www.w3.org/2000/svg">
    <path fill-rule="evenodd" clip-rule="evenodd" d="M0 1821.42V306.5C395.293 48.6294 816.477 185.686 1164.54 298.949C1554.8 425.941 1853.14 523.023 1920 0V1514.92C1515.54 1778.77 1124.91 1669.78 794.938 1577.71C440.84 1478.91 156.582 1399.59 0 1821.42Z" fill="#FFC200"/>
    <path fill-rule="evenodd" clip-rule="evenodd" d="M0 1759.52V1782.28C156.582 1360.45 440.84 1439.77 794.938 1538.57C1124.91 1630.64 1515.54 1739.64 1920 1475.78V1436.44C1454.66 1740.28 1054.01 1612.56 731.277 1509.68C401.383 1404.51 152.91 1325.31 0 1759.52Z" fill="url(#paint0_linear_0_1)"/>
    <defs>
        <linearGradient id="paint0_linear_0_1" x1="298" y1="1489.84" x2="1726.51" y2="1946.19" gradientUnits="userSpaceOnUse">
            <stop stop-color="#FF126B"/>
            <stop offset="1" stop-color="#03ABE2"/>
        </linearGradient>
    </defs>
</svg>
