<svg width="15" height="12" viewBox="0 0 15 12" fill="none" xmlns="http://www.w3.org/2000/svg">
    <path d="M15 1.425C14.448 1.65937 13.8483 1.82813 13.2297 1.89375C13.8674 1.51875 14.3528 0.928125 14.5812 0.225C13.9911 0.571875 13.3249 0.825 12.6301 0.95625C12.0685 0.365625 11.269 0 10.3839 0C8.6802 0 7.30964 1.35937 7.30964 3.02812C7.30964 3.2625 7.3382 3.49687 7.38579 3.72188C4.83503 3.59062 2.56028 2.39063 1.04695 0.553125C0.780457 1.00312 0.628173 1.51875 0.628173 2.08125C0.628173 3.13125 1.17068 4.05938 1.99873 4.60313C1.49429 4.58437 1.0184 4.44375 0.609137 4.21875C0.609137 4.22813 0.609137 4.24688 0.609137 4.25625C0.609137 5.72813 1.66561 6.94688 3.07424 7.22813C2.81726 7.29375 2.54124 7.33125 2.26523 7.33125C2.06536 7.33125 1.875 7.3125 1.68464 7.28438C2.07487 8.48438 3.20749 9.35625 4.55901 9.38438C3.50254 10.2 2.17957 10.6781 0.742386 10.6781C0.485406 10.6781 0.247462 10.6688 0 10.6406C1.36104 11.5031 2.97906 12 4.72081 12C10.3744 12 13.4676 7.3875 13.4676 3.38437C13.4676 3.25312 13.4676 3.12187 13.4581 2.99062C14.0577 2.55937 14.5812 2.025 15 1.425Z" fill="#177CB5"/>
</svg>
