<svg width="18" height="10" viewBox="0 0 18 10" fill="none" xmlns="http://www.w3.org/2000/svg">
    <path d="M17.9746 0.723152C17.9746 0.723152 17.8434 0.358131 17.0281 0.458511L14.3291 0.476763C14.1229 0.449386 13.9729 0.531516 13.9729 0.531516C13.9729 0.531516 13.8136 0.613646 13.7386 0.814407C13.2982 1.9186 12.7359 2.86765 12.7359 2.86765C11.5363 4.85702 11.049 4.96653 10.8522 4.83877C10.3929 4.55588 10.5148 3.68895 10.5148 3.06842C10.5148 1.1338 10.8147 0.330754 9.92436 0.120866C9.63384 0.0569876 9.41829 0.0113603 8.65919 0.00223504C7.6939 -0.00689119 6.87857 0.00223504 6.41935 0.221248C6.11009 0.367256 5.87579 0.695775 6.01637 0.714026C6.19443 0.741403 6.59741 0.823533 6.81296 1.10642C6.81296 1.10642 7.04726 1.48057 7.08474 2.30187C7.18783 4.57413 6.70988 4.85702 6.70988 4.85702C6.34438 5.04866 5.7071 4.72926 4.76994 2.8494C4.76994 2.8494 4.22638 1.9186 3.80465 0.896538C3.72968 0.704902 3.57973 0.604521 3.57973 0.604521C3.57973 0.604521 3.41104 0.476763 3.16738 0.44026L0.599536 0.458511C0.205925 0.458511 0.0653501 0.631896 0.0653501 0.631896C0.0653501 0.631896 -0.0752252 0.777905 0.0559784 1.07905C2.06152 5.66919 4.34821 7.96883 4.34821 7.96883C4.34821 7.96883 6.4381 10.0951 8.80913 9.94907H9.88688C10.2149 9.92169 10.3836 9.74831 10.3836 9.74831C10.3836 9.74831 10.5335 9.58405 10.5242 9.28291C10.5054 7.87757 11.1802 7.66769 11.1802 7.66769C11.8362 7.46692 12.6796 9.02739 13.5793 9.62968C13.5793 9.62968 14.2635 10.086 14.7789 9.98557L17.178 9.94907C18.4432 9.93994 17.8434 8.91789 17.8434 8.91789C17.7966 8.83576 17.4967 8.20609 16.0534 6.90114C14.554 5.54144 14.7508 5.76045 16.5689 3.40606C17.6747 1.97335 18.1152 1.0973 17.9746 0.723152Z" fill="#00ACA0"/>
</svg>
